<svg width="36" height="36" viewBox="0 0 36 36" fill="none" xmlns="http://www.w3.org/2000/svg">
<g id="Group 435">
<g id="Group 420">
<rect id="Rectangle 18" width="36" height="36" rx="8" fill="#3C3B38"/>
</g>
<g id="Group">
<path id="Vector" d="M18.2469 25.9942C16.059 26.0126 13.8706 25.9866 11.6903 25.8523C10.9659 25.8079 10.2428 25.7312 9.5266 25.6133C8.99676 25.5259 8.50051 25.3484 8.07397 25.01C7.54983 24.5942 7.26018 24.0365 7.11694 23.3957C6.9585 22.6878 6.85773 21.971 6.78611 21.2491C6.64541 19.8218 6.64034 18.392 6.68534 16.9603C6.70182 16.4355 6.71322 15.9107 6.74428 15.3872C6.80132 14.4365 6.89512 13.489 7.14674 12.5662C7.2811 12.0738 7.48264 11.613 7.83186 11.2289C8.17854 10.8487 8.61838 10.6268 9.1045 10.4874C9.52723 10.3663 9.96074 10.3049 10.3987 10.2738C10.9678 10.2326 11.537 10.1902 12.1067 10.1559C12.6334 10.1249 13.1601 10.0919 13.6874 10.0811C15.1293 10.052 16.5705 10.019 18.0124 10.0159C19.2622 10.0127 20.512 10.0418 21.7618 10.0685C22.703 10.0881 23.6436 10.1236 24.5847 10.1572C25.1532 10.1775 25.7154 10.2624 26.2738 10.3651C26.5659 10.419 26.8619 10.4678 27.1427 10.5597C28.0649 10.8613 28.6315 11.5097 28.8913 12.4325C29.0662 13.0536 29.167 13.6893 29.2234 14.3313C29.3724 16.0254 29.4059 17.724 29.366 19.4232C29.3432 20.389 29.2684 21.3511 29.1296 22.3081C29.0618 22.7746 28.9826 23.2373 28.8317 23.6854C28.691 24.1049 28.4939 24.4928 28.1827 24.8154C27.8684 25.1405 27.4837 25.3465 27.0584 25.4853C26.6217 25.6279 26.1711 25.7002 25.7154 25.7439C23.2341 25.9803 20.737 25.9733 18.2475 25.9942H18.2469ZM15.6984 21.431C17.7069 20.2876 19.7014 19.1525 21.7118 18.0079C19.6995 16.8652 17.7056 15.732 15.6984 14.5918V21.431Z" fill="#EFECE8"/>
<path id="Vector_2" d="M15.6982 21.431V14.5918C17.7054 15.732 19.7 16.8646 21.7116 18.0079C19.7012 19.1525 17.7067 20.2876 15.6982 21.431Z" fill="#3C3B38"/>
</g>
</g>
</svg>
