<svg width="36" height="36" viewBox="0 0 36 36" fill="none" xmlns="http://www.w3.org/2000/svg">
<g id="Group 434">
<rect id="Rectangle 18" width="36" height="36" rx="8" fill="#3C3B38"/>
<g id="Group">
<path id="Vector" d="M18.5101 16.5539C18.9482 16.0198 19.4536 15.5885 20.0363 15.2471C21.3378 14.4857 22.7346 14.263 24.1927 14.6177C25.8396 15.0184 26.9991 16.0105 27.6031 17.6227C27.8505 18.2828 28.0012 18.9528 27.9998 19.6609C27.9945 22.3886 27.9978 25.1169 27.9978 27.8445C27.9978 28.0076 27.9165 28.0892 27.7538 28.0892C26.5417 28.0892 25.3289 28.0892 24.1167 28.0892C23.9167 28.0892 23.916 28.0885 23.916 27.8932C23.916 25.4829 23.9267 23.0726 23.912 20.6624C23.9074 19.8463 23.6333 19.1309 22.9219 18.6508C22.4499 18.3321 21.9178 18.2248 21.3564 18.2468C20.6797 18.2734 20.051 18.4428 19.5556 18.9355C19.0788 19.4089 18.8461 20.003 18.7681 20.6604C18.7435 20.8697 18.7428 21.0824 18.7428 21.2938C18.7408 23.4927 18.7415 25.6909 18.7415 27.8898C18.7415 28.0892 18.7415 28.0899 18.5448 28.0899C17.3226 28.0899 16.1005 28.0899 14.879 28.0899C14.6804 28.0899 14.6797 28.0885 14.6797 27.8892C14.6797 23.564 14.6797 19.2389 14.6797 14.9144C14.6797 14.7164 14.6797 14.7164 14.8784 14.7164C16.0285 14.7164 17.178 14.719 18.3281 14.713C18.4754 14.7124 18.5161 14.755 18.5134 14.9004C18.5048 15.4051 18.5101 15.9105 18.5101 16.4159V16.5559V16.5539Z" fill="#EFECE8"/>
<path id="Vector_2" d="M8.26537 21.3942C8.26537 19.234 8.26537 17.0738 8.26537 14.9135C8.26537 14.7815 8.33093 14.7153 8.46206 14.7148C9.70353 14.7148 10.9443 14.7148 12.1858 14.7148C12.3489 14.7148 12.4305 14.7953 12.4305 14.9562C12.4305 18.4686 12.4305 21.9803 12.4305 25.4927C12.4305 26.2961 12.4272 27.0995 12.4332 27.903C12.4345 28.0477 12.3898 28.093 12.2445 28.0923C10.979 28.0877 9.71353 28.0877 8.44872 28.0923C8.30404 28.0923 8.26204 28.0503 8.2627 27.9036C8.26737 25.7341 8.26604 23.5638 8.26604 21.3942H8.26537Z" fill="#EFECE8"/>
<path id="Vector_3" d="M10.3446 12.7699C9.02644 12.7699 7.95765 11.7004 7.95899 10.3823C7.96032 9.07149 9.04577 7.9927 10.3559 8.00004C11.6667 8.00737 12.7308 9.07616 12.7315 10.3863C12.7322 11.7058 11.6667 12.7699 10.3446 12.7699Z" fill="#EFECE8"/>
</g>
</g>
</svg>
