<svg width="40" height="60" viewBox="0 0 40 60" fill="none" xmlns="http://www.w3.org/2000/svg">
<g id="Layer_1" clip-path="url(#clip0_23_2424)">
<path id="Vector" d="M8.13383 53.3051V54.6266H0V53.3051H3.26833V52.5553C3.17754 52.5284 3.08675 52.4948 3.00269 52.4578C2.68662 52.3367 2.41426 52.1686 2.18225 51.9568C1.94015 51.7449 1.75185 51.4927 1.61399 51.2069C1.47276 50.9211 1.40551 50.6151 1.40551 50.289C1.40551 49.9628 1.47949 49.6669 1.62744 49.371C1.7384 49.1323 1.88299 48.9171 2.05783 48.7321H0.221923V47.4241H3.14055V46.2305H4.85205V47.4241H7.75723V48.7321H5.93477C6.10962 48.9171 6.26429 49.1323 6.39543 49.371C6.52656 49.6669 6.59045 49.9729 6.59045 50.289C6.59045 50.605 6.51984 50.9211 6.38198 51.2069C6.24412 51.4961 6.05582 51.7449 5.82381 51.9568C5.58171 52.1686 5.30598 52.3367 4.98991 52.4578C4.90585 52.4948 4.81843 52.5284 4.72764 52.5553V53.3051H8.13383ZM2.29321 55.4874V57.3502H10.8709V58.6447H0.749832V55.4874H2.29321ZM5.19839 50.2621C5.19839 49.946 5.0807 49.6703 4.84533 49.4282C4.60995 49.1861 4.32751 49.065 4.00471 49.065C3.68191 49.065 3.39946 49.1861 3.16409 49.4282C2.92872 49.6703 2.81103 49.946 2.81103 50.2621C2.81103 50.5781 2.92872 50.864 3.16409 51.096C3.39946 51.328 3.68191 51.4423 4.00471 51.4423C4.32751 51.4423 4.60995 51.328 4.84533 51.096C5.0807 50.864 5.19839 50.5849 5.19839 50.2621ZM10.538 50.0133H12.1217V51.4726H10.538V55.0435H8.99462V46.4927H10.538V50.0099V50.0133Z" fill="#595858"/>
<path id="Vector_2" d="M20.2691 52.6633H18.7258V48.1307H14.1797V46.7554H20.2691V52.6633ZM24.3714 56.2511C24.3714 56.668 24.2873 57.0614 24.1124 57.4279C23.941 57.7944 23.7123 58.1139 23.4231 58.393C23.1272 58.672 22.7809 58.8906 22.3875 59.052C21.9941 59.2134 21.5805 59.2941 21.1434 59.2941C20.7063 59.2941 20.2893 59.2134 19.8925 59.052C19.4958 58.8906 19.1461 58.6687 18.8502 58.393C18.5711 58.1139 18.3458 57.7911 18.1777 57.4279C18.0062 57.0614 17.9188 56.6714 17.9188 56.2511C17.9188 55.8308 18.0062 55.4441 18.1777 55.0776C18.3492 54.7111 18.5744 54.3883 18.8502 54.1125C19.1461 53.8334 19.4958 53.6149 19.8925 53.4535C20.2927 53.2921 20.7096 53.2114 21.1434 53.2114C21.5771 53.2114 21.9941 53.2921 22.3875 53.4535C22.7809 53.6149 23.1272 53.8368 23.4231 54.1125C23.7123 54.3916 23.941 54.7111 24.1124 55.0776C24.2839 55.4441 24.3714 55.8341 24.3714 56.2511ZM22.8549 56.2376C22.8549 55.7736 22.6834 55.3768 22.3404 55.0406C21.9974 54.7077 21.5939 54.5396 21.1299 54.5396C20.6659 54.5396 20.2658 54.7077 19.9262 55.0406C19.5899 55.3735 19.4184 55.7736 19.4184 56.2376C19.4184 56.7016 19.5865 57.1119 19.9262 57.4414C20.2624 57.7709 20.6659 57.9357 21.1299 57.9357C21.5939 57.9357 21.9974 57.7709 22.3404 57.4414C22.6834 57.1119 22.8549 56.7117 22.8549 56.2376ZM23.3693 46.4932H24.9127V52.9996H23.3693V51.6243H21.3384V50.3466H23.3693V49.163H21.3384V47.8987H23.3693V46.4932Z" fill="#595858"/>
<path id="Vector_3" d="M28.601 54.3242H39.9998V55.686H35.0637V58.8837H33.5203V55.686H28.5977V54.3242H28.601ZM31.0321 48.2617H37.5519V46.6914H39.0819V52.6564H29.519V46.6914H31.0355V48.2617H31.0321ZM37.5519 49.5966H31.0321V51.3081H37.5519V49.5966Z" fill="#595858"/>
<path id="Vector_4" d="M29.4745 17.6362C26.2667 15.4539 22.1544 16.345 19.9957 19.6234C18.1934 22.3672 15.4732 22.7068 14.4207 22.7068C10.9876 22.7068 8.63725 20.2892 7.94121 17.7909C7.93449 17.7673 7.93113 17.7471 7.92104 17.7202C7.91431 17.6933 7.91095 17.6664 7.90086 17.6362C7.6285 16.5938 7.55789 16.0962 7.55789 14.9866C7.55789 9.01143 13.6877 2.3571 22.5209 2.3571C31.3541 2.3571 36.7408 9.24344 38.0723 13.0666C38.0522 13.0027 38.032 12.9321 38.0051 12.8615C35.4395 5.38332 28.3413 0 19.989 0C9.4745 0 0.947266 8.52387 0.947266 19.0417C0.947266 28.4432 7.72265 36.4896 17.1309 36.4896C24.6325 36.4896 29.6729 32.2831 31.9863 26.4862C33.2539 23.3188 32.3561 19.5931 29.4745 17.6328" fill="#0B3966"/>
<path id="Vector_5" d="M38.1902 13.4401C37.0772 9.70779 31.8654 2.35742 22.5177 2.35742C13.6845 2.35742 7.55469 9.01176 7.55469 14.9869C7.55469 16.0965 7.62194 16.5941 7.89766 17.6365C7.78334 17.1826 7.72281 16.7219 7.72281 16.2814C7.72281 10.0541 13.9535 5.74343 20.3624 5.74343C29.0375 5.74343 36.0651 12.771 36.0651 21.4428C36.0651 28.2384 32.1512 34.1227 26.4686 36.9506V36.9573C33.7954 34.3043 39.0308 27.2834 39.0308 19.0454C39.0308 17.0951 38.7685 15.3736 38.1936 13.4435" fill="#C50030"/>
</g>
<defs>
<clipPath id="clip0_23_2424">
<rect width="40" height="59.2972" fill="white"/>
</clipPath>
</defs>
</svg>
