<svg width="40" height="61" viewBox="0 0 40 61" fill="none" xmlns="http://www.w3.org/2000/svg">
<g id="Layer_1" clip-path="url(#clip0_23_2431)">
<g id="Group">
<path id="Vector" d="M10.6537 55.6894V60.0847H9.08713V57.0622H0.791217V55.6894H5.01632V53.838H0V52.4692H11.5874V53.838H6.57106V55.6894H10.6537ZM10.6537 47.7061V51.4643H9.08713V49.0907H0.933637V47.7061H10.6537Z" fill="#585757"/>
<path id="Vector_2" d="M17.347 47.5323L20.864 57.7944L19.5506 58.3324L17.347 51.8603L15.1712 58.4313L13.8301 57.8972L17.347 47.5363V47.5323ZM21.588 47.4611H23.0438V59.9821H21.588V53.4664H20.0214V52.0541H21.588V47.4611ZM24.2306 47.4492H25.7419V60.0533H24.2306V47.4492Z" fill="#585757"/>
<path id="Vector_3" d="M28.8633 49.811V48.4976H31.8145V47.2949H33.484V48.4976H36.2968V49.811H33.2308L36.4115 53.0312L35.3948 53.9926L32.6532 51.1363L29.9393 54.2181L28.8949 53.2449L32.0875 49.811H28.8672H28.8633ZM38.9236 57.3711C38.9236 57.7944 38.8366 58.1939 38.6625 58.5658C38.4884 58.9377 38.255 59.266 37.9623 59.5469C37.6695 59.8278 37.3254 60.0533 36.9258 60.2195C36.5223 60.3817 36.099 60.4647 35.648 60.4647C35.197 60.4647 34.7816 60.3817 34.3781 60.2195C33.9706 60.0533 33.6264 59.8318 33.3297 59.5469C33.037 59.266 32.8035 58.9377 32.6295 58.5658C32.4554 58.1939 32.3684 57.7944 32.3684 57.3711C32.3684 56.9478 32.4554 56.5482 32.6295 56.1763C32.8035 55.8045 33.037 55.4761 33.3297 55.1952C33.6225 54.9104 33.9706 54.6888 34.3781 54.5266C34.7855 54.3605 35.2088 54.2774 35.648 54.2774C36.0871 54.2774 36.5262 54.3605 36.9258 54.5266C37.3254 54.6888 37.6695 54.9143 37.9623 55.1952C38.255 55.4761 38.4884 55.8045 38.6625 56.1763C38.8366 56.5482 38.9236 56.9478 38.9236 57.3711ZM37.3847 57.3552C37.3847 56.8845 37.2106 56.481 36.8704 56.1407C36.5262 55.8005 36.1148 55.6304 35.6321 55.6304C35.1495 55.6304 34.7579 55.8005 34.4176 56.1407C34.0774 56.481 33.9073 56.8845 33.9073 57.3552C33.9073 57.826 34.0774 58.2454 34.4176 58.5777C34.7579 58.91 35.1614 59.0801 35.6321 59.0801C36.1029 59.0801 36.5262 58.914 36.8704 58.5777C37.2146 58.2454 37.3847 57.8339 37.3847 57.3552ZM38.4291 54.1627V51.7613H36.2256V50.4163H38.4291V47.4492H39.9997V54.1627H38.4291Z" fill="#585757"/>
</g>
<g id="Group_2">
<path id="Vector_4" d="M29.6548 17.9448C26.3871 15.7254 22.2055 16.6314 20.0099 19.9703C18.1743 22.7594 15.405 23.1035 14.3329 23.1035C10.8397 23.1035 8.44623 20.6468 7.7381 18.1031C7.73018 18.0793 7.72623 18.0595 7.71832 18.0318C7.7104 18.0042 7.70249 17.9765 7.69458 17.9448C7.41765 16.8846 7.34644 16.3782 7.34644 15.2507C7.34644 9.16625 13.5852 2.39739 22.5734 2.39739C31.5617 2.39739 37.0408 9.40362 38.3978 13.2964C38.374 13.2252 38.3543 13.1579 38.3266 13.0907C35.7235 5.47522 28.4996 0 19.998 0C9.30075 0 0.621094 8.6757 0.621094 19.3769C0.621094 28.9427 7.52051 37.1318 17.0942 37.1318C24.7295 37.1318 29.8566 32.8513 32.2105 26.9528C33.5001 23.7286 32.5863 19.9347 29.6548 17.9409V17.9448Z" fill="#1E3A61"/>
<path id="Vector_5" d="M38.5236 13.6762C37.3921 9.87837 32.087 2.40137 22.5766 2.40137C13.5884 2.40137 7.34961 9.17023 7.34961 15.2547C7.34961 16.3822 7.41686 16.8886 7.69774 17.9488C7.58302 17.4859 7.51972 17.0191 7.51972 16.5681C7.51972 10.2344 13.8613 5.84712 20.381 5.84712C29.207 5.84712 36.3596 12.9997 36.3596 21.8258C36.3596 28.745 32.3798 34.7305 26.592 37.6066C34.0453 34.9125 39.3702 27.7718 39.3702 19.3849C39.3702 17.3989 39.1051 15.6503 38.5196 13.6841L38.5236 13.6762Z" fill="#C30830"/>
</g>
</g>
<defs>
<clipPath id="clip0_23_2431">
<rect width="40" height="60.4648" fill="white"/>
</clipPath>
</defs>
</svg>
