<svg width="36" height="36" viewBox="0 0 36 36" fill="none" xmlns="http://www.w3.org/2000/svg">
<g id="Group 436">
<g id="Group 424">
<g id="Group 420">
<rect id="Rectangle 18" width="36" height="36" rx="8" fill="#3C3B38"/>
</g>
</g>
<path id="Vector" d="M22.8657 9H23.5465C23.6378 9.0308 23.7341 9.02446 23.8277 9.03801C24.8583 9.18706 25.741 9.63176 26.4719 10.3791C26.5126 10.4208 26.5476 10.4365 26.6073 10.4238C27.4369 10.2491 28.2279 9.96629 28.9783 9.56964C29.1136 9.49819 29.2473 9.42358 29.4027 9.33893C29.0381 10.4182 28.3854 11.2397 27.432 11.8452C27.4668 11.8452 27.4785 11.8466 27.4897 11.845C28.3205 11.7336 29.1239 11.5196 29.8955 11.1877C29.9278 11.1738 29.9588 11.1408 30 11.1672L29.9988 11.1668C29.9794 11.1921 29.9586 11.2164 29.9406 11.2428C29.3651 12.0813 28.6737 12.8076 27.8593 13.4133C27.7805 13.4719 27.7512 13.5296 27.7557 13.6291C27.802 14.6437 27.7075 15.6475 27.503 16.6405C27.1991 18.1172 26.6661 19.506 25.9039 20.8042C25.0336 22.2868 23.924 23.5557 22.5511 24.5873C21.6747 25.2458 20.7255 25.7723 19.7063 26.1709C18.85 26.5056 17.9672 26.7418 17.059 26.8803C16.6508 26.9424 16.2425 27.0022 15.8276 26.9999C15.2603 26.9968 14.6929 26.9999 14.1256 26.9985C13.9571 26.9982 13.7888 27.002 13.62 26.9852C12.796 26.9024 11.9877 26.7414 11.195 26.5021C10.1996 26.2015 9.25567 25.7817 8.36019 25.2511C8.23873 25.1791 8.11989 25.1029 8 25.0286L8.00489 25.0065C9.18909 25.1397 10.3555 25.0475 11.5008 24.724C12.6482 24.4001 13.692 23.8683 14.6511 23.116C13.669 23.0811 12.8002 22.786 12.033 22.2079C11.2663 21.6302 10.7357 20.8793 10.4278 19.9491C11.115 20.0783 11.782 20.0556 12.4666 19.8718C12.3955 19.8548 12.3477 19.8439 12.3002 19.8319C11.3507 19.5945 10.554 19.1042 9.92169 18.3532C9.21443 17.513 8.85739 16.5378 8.84358 15.4358C8.84288 15.3753 8.84655 15.3459 8.91715 15.3846C9.40527 15.6517 9.92781 15.8129 10.4778 15.8846C10.6017 15.9007 10.7272 15.9196 10.8722 15.9051C10.8222 15.8689 10.7876 15.8436 10.753 15.8186C8.90247 14.4817 8.33362 11.9124 9.44371 9.91561C9.48041 9.84961 9.49702 9.83747 9.55172 9.90364C10.8561 11.485 12.4402 12.6953 14.31 13.5235C15.7186 14.1473 17.1929 14.4968 18.7283 14.5901C18.8127 14.5952 18.8143 14.5714 18.7996 14.5009C18.6596 13.8226 18.6691 13.1462 18.8307 12.4722C19.2605 10.6804 20.7572 9.31007 22.5694 9.04787C22.6684 9.03361 22.7708 9.03942 22.8657 9Z" fill="#EFECE8"/>
</g>
</svg>
