<svg width="100" height="26" viewBox="0 0 100 26" fill="none" xmlns="http://www.w3.org/2000/svg">
<g id="Group">
<path id="Vector" d="M0 21.9053L2.99166 18.2387C4.95474 20.0396 7.46293 21.1006 10.3248 21.1006C13.1867 21.1006 14.6338 20.0071 14.6338 18.2063C14.6338 16.2432 12.6416 15.763 9.03663 14.9583C4.85415 13.9946 0.931244 12.4177 0.931244 7.56027C0.931244 3.31289 4.21493 0 10.3897 0C14.5073 0 17.434 1.25572 19.7508 3.15065L17.1128 6.91457C15.0848 5.24352 12.8038 4.30903 10.3248 4.30903C7.84581 4.30903 6.56089 5.5323 6.56089 7.04111C6.56089 8.93929 8.39417 9.35786 11.9666 10.1626C16.3406 11.1587 20.2635 12.6383 20.2635 17.6579C20.2635 22.1941 16.7267 25.4096 10.2275 25.4096C5.6264 25.4096 2.47575 24.0923 0 21.9021" fill="#004C99"/>
<path id="Vector_2" d="M24.5879 25.0558V0.353516H41.7656V4.72744H30.25V10.7757H40.2211V15.1171H30.25V25.0558H24.5879Z" fill="#004C99"/>
<path id="Vector_3" d="M56.7191 0C64.6622 0 68.9096 5.46741 68.9096 12.7064C68.9096 19.9455 64.6947 25.4129 56.6866 25.4129C48.6786 25.4129 44.4961 19.9455 44.4961 12.7064C44.4961 5.46741 48.711 0 56.7191 0ZM56.7191 21.0682C61.1254 21.0682 63.1859 17.3043 63.1859 12.7064C63.1859 8.10863 61.0638 4.34148 56.6899 4.34148C52.3159 4.34148 50.2263 8.10539 50.2263 12.7064C50.2263 17.3075 52.3484 21.0682 56.7223 21.0682" fill="#004C99"/>
<path id="Vector_4" d="M77.9316 12.7713C77.9316 5.5323 82.2407 0 89.9956 0C94.4993 0 97.8122 1.93063 99.9019 5.30841L95.8167 7.97884C94.5285 5.5972 92.7277 4.34472 90.1871 4.34472C85.7158 4.34472 83.6586 8.17353 83.6586 12.7064C83.6586 17.2394 85.6834 21.0682 90.2844 21.0682C92.8251 21.0682 94.6583 19.8125 95.9465 17.5606L99.9992 20.1012C97.8771 23.4141 94.6908 25.4096 90.0281 25.4096C82.2764 25.4096 77.9349 20.072 77.9349 12.7681" fill="#004C99"/>
<path id="Vector_5" d="M73.6109 2.1937C74.2501 2.1937 74.7498 2.6869 74.7498 3.31314C74.7498 3.93938 74.2501 4.46827 73.6109 4.46827C72.9717 4.46827 72.472 3.95885 72.472 3.31314C72.472 2.66744 72.9717 2.1937 73.6109 2.1937ZM73.6109 0.178711C71.8555 0.178711 70.457 1.58369 70.457 3.31314C70.457 5.04259 71.8555 6.48326 73.6109 6.48326C75.3663 6.48326 76.7648 5.07829 76.7648 3.31314C76.7648 1.548 75.3663 0.178711 73.6109 0.178711Z" fill="#004C99"/>
</g>
</svg>
